<svg id="logo-haboob" preserveAspectRatio="xMidYMid meet" data-name="logo-haboob" xmlns="http://www.w3.org/2000/svg" width="200mm" height="33.167mm" viewBox="0 0 566.9291 94.0167"><defs><style>.cls-1{fill:#010101;}</style></defs><polygon class="cls-1" points="90.799 41.069 42.022 41.069 42.022 2.274 32.925 2.274 32.925 41.07 0 41.07 0 49.397 32.925 49.397 32.925 91.741 42.022 91.741 42.022 49.409 90.799 49.409 90.799 91.741 99.897 91.741 99.897 2.274 90.799 2.274 90.799 41.069"/><path class="cls-1" d="M258.9675,44.6076v-.2533a20.0405,20.0405,0,0,0,11.689-7.0138,19.7788,19.7788,0,0,0,4.1064-12.5724,21.5162,21.5162,0,0,0-2.4009-10.615,19.6546,19.6546,0,0,0-6.4444-6.95,27.3273,27.3273,0,0,0-9.2244-3.7915,49.9645,49.9645,0,0,0-10.741-1.1376H219.29V91.7411h27.2941q10.7394,0,17.1855-3.0332a28.128,28.128,0,0,0,9.8567-7.1394,21.4419,21.4419,0,0,0,4.4856-8.2763,27.8715,27.8715,0,0,0,1.0738-6.3181q0-9.8577-5.37-15.7333Q268.4426,45.367,258.9675,44.6076Zm-30.58-33.9931h17.4386q6.444,0,10.2353,1.8329a15.8405,15.8405,0,0,1,5.75,4.36,12.9867,12.9867,0,0,1,2.5268,5.0552,19.23,19.23,0,0,1,.5688,3.9159,14.8412,14.8412,0,0,1-1.6426,7.2671,14.8421,14.8421,0,0,1-4.2331,4.8649,16.7633,16.7633,0,0,1-5.8126,2.7169,26.2031,26.2031,0,0,1-6.508.8213H228.3876Zm39.11,63.4364a15.64,15.64,0,0,1-4.9913,5.2439,22.9839,22.9839,0,0,1-7.4552,3.0962,40.1639,40.1639,0,0,1-9.2245,1.01H228.3876V49.03h18.5755q10.9938,0,16.68,4.2969t5.6861,13.1417A14.8714,14.8714,0,0,1,267.4972,74.0509Z"/><path class="cls-1" d="M371.9276,13.3318A45.0949,45.0949,0,0,0,357.143,3.5393a50.1924,50.1924,0,0,0-37.0243,0,44.4009,44.4009,0,0,0-24.5776,24.64,48.99,48.99,0,0,0-3.5384,18.8294,48.9718,48.9718,0,0,0,3.5384,18.8279,44.4069,44.4069,0,0,0,24.5776,24.6414,50.1976,50.1976,0,0,0,37.0243,0,44.4067,44.4067,0,0,0,24.5777-24.6414,48.9964,48.9964,0,0,0,3.539-18.8279,49.0145,49.0145,0,0,0-3.539-18.8294A44.9559,44.9559,0,0,0,371.9276,13.3318Zm.9478,48.3984A37.2879,37.2879,0,0,1,365.61,74.0509a34.9962,34.9962,0,0,1-11.5622,8.4657,39.1928,39.1928,0,0,1-30.8326,0,34.99,34.99,0,0,1-11.5623-8.4657A37.26,37.26,0,0,1,304.3863,61.73a44.1474,44.1474,0,0,1,0-29.4433,37.2452,37.2452,0,0,1,7.2663-12.3207A34.9973,34.9973,0,0,1,323.2149,11.5a39.1939,39.1939,0,0,1,30.8326,0A35.0031,35.0031,0,0,1,365.61,19.9662a37.2728,37.2728,0,0,1,7.2657,12.3207,44.1375,44.1375,0,0,1,0,29.4433Z"/><path class="cls-1" d="M477.14,13.3318a45.0818,45.0818,0,0,0-14.7847-9.7925,50.1905,50.1905,0,0,0-37.0236,0,44.4044,44.4044,0,0,0-24.5782,24.64,49.0012,49.0012,0,0,0-3.5384,18.8294,48.9831,48.9831,0,0,0,3.5384,18.8279,44.41,44.41,0,0,0,24.5782,24.6414,50.1958,50.1958,0,0,0,37.0236,0,44.41,44.41,0,0,0,24.5784-24.6414,49.0093,49.0093,0,0,0,3.5384-18.8279,49.0274,49.0274,0,0,0-3.5384-18.8294A44.9574,44.9574,0,0,0,477.14,13.3318Zm.9484,48.3984a37.29,37.29,0,0,1-7.2657,12.3207A35.0055,35.0055,0,0,1,459.26,82.5166a39.1928,39.1928,0,0,1-30.8326,0,34.9757,34.9757,0,0,1-11.5622-8.4657,37.2705,37.2705,0,0,1-7.267-12.3207,44.1474,44.1474,0,0,1,0-29.4433,37.2554,37.2554,0,0,1,7.267-12.3207A34.9825,34.9825,0,0,1,428.4277,11.5a39.1939,39.1939,0,0,1,30.8326,0,35.0123,35.0123,0,0,1,11.5622,8.4662,37.2745,37.2745,0,0,1,7.2657,12.3207,44.1491,44.1491,0,0,1,0,29.4433Z"/><path class="cls-1" d="M561.5592,51.2408q-5.3729-5.8738-14.8487-6.6332v-.2533a20.0421,20.0421,0,0,0,11.69-7.0138,19.7783,19.7783,0,0,0,4.1065-12.5724,21.5217,21.5217,0,0,0-2.401-10.615,19.6606,19.6606,0,0,0-6.4443-6.95,27.338,27.338,0,0,0-9.2245-3.7915,49.9737,49.9737,0,0,0-10.7409-1.1376H507.0328V91.7411H534.327q10.74,0,17.1852-3.0332a28.13,28.13,0,0,0,9.8569-7.1394,21.4246,21.4246,0,0,0,4.4856-8.2763,27.8743,27.8743,0,0,0,1.0744-6.3181Q566.9291,57.1164,561.5592,51.2408ZM516.1314,10.6145H533.57q6.4429,0,10.2347,1.8329a15.8418,15.8418,0,0,1,5.75,4.36,12.9839,12.9839,0,0,1,2.5268,5.0552,19.2151,19.2151,0,0,1,.5683,3.9159,14.8412,14.8412,0,0,1-1.6427,7.2671,14.8427,14.8427,0,0,1-4.2325,4.8649,16.7726,16.7726,0,0,1-5.8133,2.7169,26.1968,26.1968,0,0,1-6.5072.8213H516.1314Zm39.11,63.4364a15.6392,15.6392,0,0,1-4.992,5.2439,22.9869,22.9869,0,0,1-7.4546,3.0962,40.163,40.163,0,0,1-9.2244,1.01H516.1314V49.03h18.5745q10.9951,0,16.68,4.2969,5.6873,4.2969,5.686,13.1417A14.8772,14.8772,0,0,1,555.2409,74.0509Z"/><path class="cls-1" d="M155.17,2.2744,116.25,91.7411h10.6144L132.25,78.7653h54.6848l5.3859,12.9758h10.6145l-38.92-89.4667ZM135.7063,70.4386,159.5927,12.89l23.8865,57.5488Z"/></svg>